<svg width="140" height="140" fill="none" xmlns="http://www.w3.org/2000/svg"><path d="M133.351 96.341C153.339 52.832 68.499.001 30.337 12.906 2.742 22.237 17.523 49.76 11.886 69.724 6.248 89.688-5.352 97.013 18 118c19.988 17.964 97.331 17.565 115.351-21.659z" fill="#DDF1FF"/><path d="M100.109 87.287c-.109.109-.327.218-.545.327.981.873 1.527 2.073 1.636 3.491a5.671 5.671 0 01-1.418 4.145c-.218.11-.328.328-.546.437-.763.654-1.854 1.09-2.945 1.2-4.146.327-12.873.982-16.364.545-.109 0-.218 0-.327-.109l-.218.218H47.527c-5.127-4.472-8.29-11.018-8.29-18.327 0-3.927.981-7.745 2.617-11.018h13.637c1.309 0 2.509-.873 2.945-2.073 1.746-4.582 4.691-8.29 8.51-10.909.218-.109.436-.218.654-.436.11-.11.327-.218.436-.327.982-.546 1.746-1.2 2.51-1.964 2.508-4.364 2.836-7.636 3.163-10.473a5.461 5.461 0 014.145-5.781c.11 0 .219 0 .219-.11.218 0 .436-.109.763-.109 3.055-.218 5.782 2.073 6 5.128.546 4.472-1.2 10.8-3.927 14.181a9.96 9.96 0 01-.873 1.419c-.218.327-.218.654-.218.981.546 3.819 1.091 3.491 3.927 3.6 2.291-.218 8.728.11 11.564-.109.218 0 .436-.109.764-.109 2.945-.218 5.563 1.964 5.782 4.91a5.673 5.673 0 01-1.419 4.145c-.109.109-.218.109-.218.218 1.309.873 2.291 2.29 2.4 4.036a5.672 5.672 0 01-1.418 4.146c-.218.109-.327.327-.545.436-.11.11-.219.11-.328.218.982.873 1.746 2.182 1.855 3.6a5.676 5.676 0 01-1.418 4.146c-.328.109-.437.218-.655.327z" fill="#FBCEB1"/><path d="M42.183 100.377H39.13a9.032 9.032 0 01-9.055-9.054V74.305a9.032 9.032 0 019.055-9.055h3.054a9.032 9.032 0 019.055 9.055v17.018c.109 5.018-4.036 9.054-9.055 9.054z" fill="#0E491F"/></svg>